<svg width="32" height="32" viewBox="0 0 32 32" fill="none" xmlns="http://www.w3.org/2000/svg">
<path d="M6.93103 10.588C7.34838 9.92668 7.83881 9.31237 8.39929 8.75189C9.36895 7.78223 10.4986 7.02073 11.7568 6.48852C13.0604 5.93712 14.4442 5.65758 15.8696 5.65758C17.295 5.65758 18.6787 5.93718 19.9823 6.48852C21.2406 7.02073 22.3702 7.78223 23.3398 8.75189C23.9003 9.31237 24.3908 9.92668 24.8081 10.588H31.3696V6.50463C31.3696 2.93569 28.4662 0.0322266 24.8973 0.0322266H6.84197C3.27309 0.0322266 0.369629 2.93569 0.369629 6.50457V10.588H6.93103V10.588ZM27.0192 6.21691H25.2027V4.4005H27.0192V6.21691Z" fill="#FF5722"/>
<path d="M25.7223 12.4043C26.1946 13.621 26.4342 14.9036 26.4342 16.2221C26.4342 17.6475 26.1547 19.0312 25.6033 20.3348C25.0711 21.5931 24.3096 22.7228 23.3399 23.6924C22.3702 24.662 21.2406 25.4235 19.9824 25.9557C18.6788 26.5071 17.295 26.7867 15.8696 26.7867C14.4442 26.7867 13.0605 26.5071 11.7569 25.9557C10.4986 25.4235 9.36895 24.662 8.39935 23.6924C7.4297 22.7227 6.6682 21.5931 6.13599 20.3348C5.58459 19.0312 5.30505 17.6475 5.30505 16.2221C5.30505 14.9037 5.54475 13.621 6.01696 12.4043H0.369629V24.5597C0.369629 28.1286 3.27309 31.0321 6.84197 31.0321H24.8972C28.4662 31.0321 31.3696 28.1286 31.3696 24.5597V12.4043H25.7223Z" fill="#FF5722"/>
<path d="M15.8694 12.5215C13.829 12.5215 12.1689 14.1816 12.1689 16.222C12.1689 18.2624 13.829 19.9225 15.8694 19.9225C17.9099 19.9225 19.57 18.2625 19.57 16.222C19.57 14.1816 17.9099 12.5215 15.8694 12.5215Z" fill="#FF5722"/>
<path d="M15.8698 7.47461C11.0382 7.47461 7.12158 11.3913 7.12158 16.2228C7.12158 21.0542 11.0382 24.971 15.8698 24.971C20.7013 24.971 24.6179 21.0543 24.6179 16.2228C24.6179 11.3914 20.7013 7.47461 15.8698 7.47461ZM21.3867 16.2228C21.3867 19.2648 18.9118 21.7397 15.8698 21.7397C12.8277 21.7397 10.3528 19.2648 10.3528 16.2228C10.3528 13.1808 12.8277 10.7059 15.8698 10.7059C18.9118 10.7059 21.3867 13.1807 21.3867 16.2228Z" fill="#FF5722"/>
</svg>
