<svg width="25" height="26" viewBox="0 0 25 26" fill="none" xmlns="http://www.w3.org/2000/svg">
<path d="M6.3106 22.6103C6.3106 22.1921 6.45257 21.7392 6.2751 21.4256C6.09763 21.1469 5.60072 21.0423 5.24579 20.8681C3.36462 19.8925 1.90938 18.4988 1.16402 16.5476C0.844573 15.7811 0.738091 14.91 0.596117 14.0738C0.454142 13.2376 0.418648 12.4014 0.383155 11.5651C0.312167 9.75332 0.525129 7.94151 0.91556 6.16453C1.12852 5.15409 1.66093 4.28303 2.29981 3.51649C3.29363 2.297 4.50042 1.28656 6.02665 0.798765C6.91399 0.520024 7.83682 0.380653 8.75966 0.276125C10.0019 0.136755 11.2797 0.0322266 12.522 0.0322266C13.7643 0.0322266 15.0065 0.136755 16.2488 0.241283C17.0652 0.310968 17.8815 0.450338 18.6979 0.624552C20.1176 0.938135 21.2889 1.73952 22.3182 2.71511C23.3121 3.65586 24.1284 4.77082 24.4124 6.12969C24.8383 8.11572 25.0867 10.1017 24.9093 12.1226C24.8028 13.3421 24.6608 14.5268 24.4479 15.7463C24.1994 17.14 23.4185 18.2201 22.4247 19.1957C21.3954 20.241 20.2241 21.0772 18.7334 21.3908C17.5976 21.6347 16.4263 21.7392 15.2905 21.8786C14.6871 21.9482 14.0482 21.9831 13.4093 21.9831C12.6995 21.9831 11.9541 21.9482 11.2442 21.9482C11.0667 21.9482 10.8183 22.0528 10.6763 22.1921C9.85996 22.9935 9.11459 23.7949 8.33373 24.5963C7.76584 25.1538 6.98498 25.1886 6.55905 24.6311C6.38158 24.3872 6.31059 24.0388 6.2751 23.7601C6.2751 23.342 6.3106 22.9935 6.3106 22.6103ZM7.30442 21.5301C7.30442 21.8786 7.30442 22.227 7.30442 22.5754C7.30442 22.9238 7.30442 23.2723 7.30442 23.6207C7.30442 23.7252 7.37541 23.8646 7.44639 23.8994C7.51738 23.9343 7.65935 23.8297 7.73034 23.7601C7.80133 23.7252 7.83682 23.6555 7.90781 23.5858C9.11459 22.3664 10.2859 21.1817 11.4927 19.9971C11.6346 19.8577 11.8476 19.7532 12.0606 19.7532C13.7643 19.7532 15.468 19.6138 17.1717 19.4047C18.1655 19.2654 19.0883 19.0215 19.9047 18.3943C20.9695 17.5581 21.9633 16.6522 22.2118 15.2933C22.4602 14.0041 22.6022 12.6801 22.6732 11.3561C22.7087 10.276 22.5667 9.161 22.4602 8.08088C22.3537 6.93107 22.0698 5.8161 21.2179 4.87535C20.3661 3.9346 19.4078 3.06354 18.0945 2.81964C16.8167 2.57574 15.5389 2.43637 14.2257 2.36668C12.0961 2.26216 9.93095 2.33184 7.83682 2.71511C5.56523 3.09838 4.00351 4.38756 3.22265 6.47811C2.86771 7.41887 2.79672 8.46414 2.72574 9.47458C2.65475 10.7638 2.69024 12.0878 2.79672 13.377C2.83222 14.1435 2.9387 14.9449 3.22265 15.6766C3.86153 17.3839 5.1393 18.4988 6.843 19.1608C7.16244 19.3002 7.30442 19.4396 7.30442 19.788C7.26892 20.3106 7.30442 20.9378 7.30442 21.5301Z" fill="#424242"/>
<path d="M13.6577 14.1085C13.7996 14.0388 13.9771 13.9692 14.1191 13.8646C14.2966 13.7253 14.403 13.5162 14.5805 13.3768C14.9354 13.0284 15.3614 12.889 15.7873 13.1329C16.5681 13.6556 17.349 14.1782 18.0944 14.7705C18.3783 14.9796 18.4848 15.2932 18.3073 15.6416C17.9169 16.5127 17.349 17.2095 16.3552 17.4883C16.2132 17.5231 16.0712 17.5231 15.9293 17.4883C12.6284 16.3385 9.85986 14.5266 8.01419 11.5302C7.37531 10.5197 6.91389 9.40477 6.38149 8.32465C6.09754 7.80201 6.20402 7.31421 6.52346 6.82641C6.91389 6.26893 7.4108 5.85082 8.01419 5.57208C8.36913 5.39786 8.75956 5.43271 9.00801 5.74629C9.57591 6.44314 10.1083 7.17484 10.6052 7.94138C10.9602 8.49886 10.7827 8.95181 10.2858 9.36992C10.1793 9.43961 10.1083 9.5093 10.0018 9.57898C9.68239 9.82288 9.6114 10.1365 9.75338 10.4849C10.3568 12.1225 11.4571 13.342 13.1608 13.9692C13.3027 14.0388 13.4447 14.0388 13.6577 14.1085Z" fill="#424242"/>
<path d="M18.7691 10.9031C18.7691 11.0076 18.8401 11.147 18.8046 11.2515C18.7336 11.3909 18.6272 11.6 18.4852 11.6348C18.3787 11.6697 18.1303 11.4606 18.0948 11.3561C17.9883 11.0076 17.9883 10.6592 17.9528 10.3108C17.8108 8.25508 16.2136 6.3039 14.1905 5.8161C13.7645 5.71157 13.3031 5.67673 12.8417 5.60704C12.7352 5.60704 12.6642 5.5722 12.5578 5.5722C12.3093 5.53736 12.1318 5.46767 12.1318 5.18893C12.1673 4.87535 12.4158 4.80566 12.6642 4.80566C15.3972 4.91019 17.7398 6.44327 18.5207 9.19583C18.6627 9.75331 18.7336 10.3456 18.8046 10.9031C18.8046 10.8683 18.8046 10.9031 18.7691 10.9031Z" fill="#424242"/>
<path d="M17.2423 10.5193C17.2068 10.589 17.2423 10.7284 17.1713 10.7981C17.0648 10.9026 16.9229 11.042 16.7809 11.042C16.6744 11.042 16.4969 10.8677 16.4969 10.7632C16.3905 10.3799 16.3905 9.92699 16.284 9.54372C15.929 8.21971 14.7932 7.3138 13.3735 7.17443C13.2315 7.17443 13.1251 7.13958 12.9831 7.10474C12.7701 7.0699 12.6281 6.93053 12.6636 6.72147C12.6991 6.47757 12.8766 6.37305 13.0896 6.37305C15.1837 6.51242 16.9584 7.80159 17.2068 10.0664C17.2068 10.1709 17.2423 10.3451 17.2423 10.5193Z" fill="#424242"/>
<path d="M13.5866 7.94141C14.7934 7.97625 15.7162 8.98668 15.6452 10.1016C15.6452 10.3455 15.5387 10.5546 15.2903 10.5198C15.1483 10.4849 15.0063 10.3107 14.8644 10.1713C14.8289 10.1365 14.8644 10.0668 14.8644 10.032C14.6869 9.12605 14.4384 8.88216 13.4801 8.70794C13.2317 8.6731 13.0542 8.53373 13.0542 8.28983C13.0897 8.04593 13.2672 7.94141 13.5156 7.94141C13.5866 7.94141 13.6221 7.94141 13.5866 7.94141Z" fill="#424242"/>
</svg>
