<svg width="35" height="34" viewBox="0 0 35 34" fill="none" xmlns="http://www.w3.org/2000/svg">
<path d="M30.3267 25.4664C28.8024 26.7756 26.5932 27.7147 23.6991 28.2834C20.805 28.8522 17.8225 29.0186 14.7517 28.7825L8.91934 33.0322V27.72C6.99731 27.1405 5.49504 26.3893 4.41251 25.4664C3.13116 24.3717 2.13701 22.7995 1.43006 20.7498C0.723105 18.7 0.369629 16.6073 0.369629 14.4717C0.369629 12.3361 0.723105 10.2434 1.43006 8.19369C2.13701 6.14393 3.13669 4.56637 4.42908 3.46101C5.72148 2.35564 7.57171 1.50784 9.97977 0.917592C12.3878 0.327348 14.8511 0.0322266 17.3696 0.0322266C19.8881 0.0322266 22.3514 0.327348 24.7595 0.917592C27.1675 1.50784 29.0178 2.35564 30.3102 3.46101C31.6026 4.56637 32.6022 6.14393 33.3092 8.19369C34.0162 10.2434 34.3696 12.3361 34.3696 14.4717C34.3696 16.6073 34.0162 18.7 33.3092 20.7498C32.6022 22.7995 31.6081 24.3717 30.3267 25.4664ZM21.5451 17.5786L23.6991 17.9327C23.5223 15.3571 22.5006 13.1571 20.6338 11.3327C18.767 9.50832 16.508 8.51027 13.857 8.33857L14.2215 10.4313C16.1214 10.6673 17.7562 11.4508 19.126 12.7815C20.4957 14.1122 21.3021 15.7113 21.5451 17.5786ZM14.586 12.5883L14.9837 14.9064C15.8674 15.3356 16.5191 15.9688 16.9388 16.8059L19.3248 17.1922C19.0597 16.0547 18.4963 15.0727 17.6347 14.2464C16.7731 13.42 15.7569 12.8673 14.586 12.5883ZM11.0402 14.4878V12.4273C11.0402 12.0625 10.9021 11.6976 10.626 11.3327C10.3498 10.9678 10.0571 10.7049 9.7478 10.5439C9.43851 10.383 9.20654 10.3669 9.05189 10.4956L7.52752 12.0088C6.66593 12.8459 6.53889 14.1498 7.14643 15.9205C7.75397 17.6912 8.91381 19.4083 10.626 21.0717C12.3381 22.7352 14.1055 23.862 15.9281 24.4522C17.7507 25.0425 19.0818 24.9191 19.9213 24.082L21.4788 22.5688C21.6334 22.44 21.6279 22.22 21.4622 21.9088C21.2965 21.5976 21.0259 21.3132 20.6503 21.0556C20.2748 20.7981 19.8992 20.6693 19.5236 20.6693H17.4028L16.1766 21.6995C15.2046 21.442 13.995 20.6103 12.548 19.2044C11.1009 17.7986 10.2449 16.6127 9.97977 15.6469L11.0402 14.4878ZM13.1611 4.1854L13.4924 6.27808C15.7017 6.32101 17.7452 6.88442 19.623 7.96832C21.5009 9.05223 22.9921 10.501 24.0967 12.3147C25.2013 14.1283 25.7868 16.1083 25.8531 18.2547L28.0071 18.6088C28.0071 16.6556 27.6149 14.7883 26.8306 13.0069C26.0464 11.2254 24.9915 9.69076 23.6659 8.40296C22.3404 7.11515 20.7608 6.09028 18.9271 5.32832C17.0935 4.56637 15.1714 4.1854 13.1611 4.1854Z" fill="#FF5722"/>
</svg>
