<svg width="33" height="33" viewBox="0 0 33 33" fill="none" xmlns="http://www.w3.org/2000/svg">
<path d="M29.9765 7.43204C25.1897 0.0319819 15.4166 -2.16803 7.83748 2.432C0.457812 7.03204 -1.93559 17.0321 2.85122 24.4322L3.25012 25.0322L1.65451 31.0322L7.63803 29.4322L8.23638 29.8322C10.8292 31.2322 13.6215 32.0322 16.4138 32.0322C19.4056 32.0322 22.3974 31.2322 24.9902 29.6322C32.3699 24.8322 34.5638 15.0321 29.9765 7.43204ZM25.788 22.8322C24.9902 24.0322 23.993 24.8322 22.5968 25.0322C21.799 25.0322 20.8018 25.4322 16.8127 23.8322C13.4221 22.2322 10.6298 19.6321 8.63528 16.6321C7.43858 15.2321 6.84022 13.4321 6.64077 11.6321C6.64077 10.0321 7.23913 8.63205 8.23638 7.63204C8.63528 7.23204 9.03418 7.03204 9.43308 7.03204H10.4303C10.8292 7.03204 11.2281 7.03204 11.4276 7.83204C11.8265 8.83205 12.8237 11.2321 12.8237 11.4321C13.0232 11.6321 13.0232 12.0321 12.8237 12.2321C13.0232 12.6321 12.8237 13.0321 12.6243 13.2321C12.4248 13.4321 12.2254 13.8321 12.0259 14.0321C11.627 14.2321 11.4276 14.6321 11.627 15.0321C12.4248 16.2321 13.4221 17.4321 14.4193 18.4321C15.616 19.4321 16.8127 20.2321 18.2089 20.8321C18.6078 21.0321 19.0067 21.0321 19.2061 20.6321C19.4056 20.2321 20.4029 19.2321 20.8018 18.8321C21.2007 18.4321 21.4001 18.4321 21.799 18.6321L24.9902 20.2321C25.3891 20.4321 25.788 20.6321 25.9875 20.8321C26.1869 21.4321 26.1869 22.2322 25.788 22.8322Z" fill="#FF5722"/>
</svg>
